<?xml version="1.0" standalone="no"?>
<!DOCTYPE svg PUBLIC "-//W3C//DTD SVG 1.1//EN" "http://www.w3.org/Graphics/SVG/1.1/DTD/svg11.dtd" >
<svg xmlns="http://www.w3.org/2000/svg" xmlns:xlink="http://www.w3.org/1999/xlink" version="1.1">
<metadata>
Created by FontForge 20150824 at Tue Aug  2 11:03:24 2016
 By Everything Fonts
Hipstelvetica UltraLight
</metadata>
<defs>
<font id="Hipstelvetica-UltraLight" horiz-adv-x="575" >
  <font-face 
    font-family="Hipstelvetica"
    font-weight="250"
    font-stretch="normal"
    units-per-em="1000"
    panose-1="2 11 3 3 2 2 2 2 2 4"
    ascent="714"
    descent="-286"
    x-height="715"
    cap-height="715"
    bbox="-57 -190 882 931"
    underline-thickness="50"
    underline-position="-100"
    unicode-range="U+000D-017E"
  />
<missing-glyph horiz-adv-x="500" 
d="M0 700h500v-700h-500v700zM420 650h-340l170 -255zM450 95v510l-170 -255zM420 50l-170 255l-170 -255h340zM50 95l170 255l-170 255v-510z" />
    <glyph glyph-name=".notdef" horiz-adv-x="500" 
d="M0 700h500v-700h-500v700zM420 650h-340l170 -255zM450 95v510l-170 -255zM420 50l-170 255l-170 -255h340zM50 95l170 255l-170 255v-510z" />
    <glyph glyph-name="NULL" horiz-adv-x="0" 
 />
    <glyph glyph-name="NULL" horiz-adv-x="0" 
 />
    <glyph glyph-name="nonmarkingreturn" unicode="&#xd;" horiz-adv-x="278" 
 />
    <glyph glyph-name="space" unicode=" " horiz-adv-x="278" 
 />
    <glyph glyph-name="comma" unicode="," horiz-adv-x="278" 
d="M129 59h20v-59q0 -45 -9 -73q-11 -28 -35 -45v20q13 13 19 36q5 25 5 62h-39v59h39zM149 295v-59h-59v59h59z" />
    <glyph glyph-name="hyphen" unicode="-" horiz-adv-x="333" 
d="M94 278h51l-38 -20h-13h-15v20h15zM254 278v-20h-21h-42l39 20h3h21z" />
    <glyph glyph-name="period" unicode="." horiz-adv-x="278" 
d="M109 59h59v-59h-59v59zM168 295v-59h-59v59h59z" />
    <glyph glyph-name="slash" unicode="/" horiz-adv-x="333" 
d="M136 309l25 13l-149 -339h-19zM340 731l-144 -327l-25 -14l149 341h20z" />
    <glyph glyph-name="zero" unicode="0" horiz-adv-x="556" 
d="M523 467q12 -63 12 -127t-12 -127q-14 -64 -43 -114q-31 -51 -79 -80q-49 -31 -123 -31t-123 31q-50 30 -80 80q-30 51 -42 114q-13 61 -13 127t13 127q12 64 42 113q29 50 80 82q51 31 123 31t123 -31q49 -31 79 -82q29 -48 43 -113zM466 116q24 43 36 96l-453 232
q-9 -53 -9 -104q0 -29 3 -58t8 -59q6 -29 15 -56t23 -51q26 -46 73 -79q45 -30 116 -30q69 0 116 30q45 32 72 79zM505 230q5 28 7.5 55.5t2.5 54.5q0 29 -2.5 57.5t-8.5 58.5q-10 58 -38 107q-27 47 -72 79q-47 30 -116 30q-71 0 -116 -30q-47 -33 -73 -79q-24 -43 -36 -97
z" />
    <glyph glyph-name="one" unicode="1" horiz-adv-x="556" 
d="M318 681v-681h-20v557h-2q-16 -22 -36 -40t-45 -35q-50 -32 -101 -45v20q16 5 30 10.5t26 11.5q24 12 45 27t40 34q10 10 20 20.5t21 22.5h2v72h-2q-30 -42 -81 -74q-25 -16 -50 -27.5t-51 -18.5v20q16 5 30 10.5t26 11.5q24 12 45 27t40 34q10 10 20 20.5t21 22.5h22z
" />
    <glyph glyph-name="two" unicode="2" horiz-adv-x="556" 
d="M96 80q-18 -29 -21 -60h439v-20h-459q-2 43 18 78q19 35 50 66q16 15 33 29.5t37 28.5t38.5 27.5t37.5 27.5q20 14 39 27.5t38 27.5q18 14 34.5 28.5t31.5 29.5q14 16 26 32t20 33q18 34 18 75q0 40 -15 70q-13 31 -39 52q-13 10 -28 18t-32 13q-33 10 -76 10
q-53 0 -91 -16q-40 -17 -62 -44q-25 -29 -35 -69q-11 -41 -11 -86h-20q2 114 56 174q54 61 163 61q23 0 43 -3t40 -8q36 -12 66 -35q27 -21 44 -57t17 -80q0 -57 -30 -102q-31 -49 -76 -86q-43 -39 -99 -76q-26 -18 -51 -35.5t-48 -35.5t-43 -36t-37 -37q0 -1 -0.5 -1
t-0.5 -1h403v-20h-418z" />
    <glyph glyph-name="three" unicode="3" horiz-adv-x="556" 
d="M504 264q13 -32 13 -77q0 -48 -18 -85q-10 -18 -22 -33.5t-28 -28.5q-34 -26 -74 -39q-20 -6 -42.5 -9.5t-45.5 -3.5q-29 0 -55.5 4t-50.5 12q-49 17 -80 47q-33 30 -49 76q-17 47 -13 103h20q-4 -53 11 -96q15 -41 45 -70q11 -10 25 -19l353 185q-2 9 -4.5 17t-5.5 16
q-15 31 -41 51q-27 19 -63 30q-34 10 -77 12h-49v20h49q31 0 65 8q35 8 59 25q25 16 42 46q16 28 16 70q-2 42 -18 69t-44 46q-14 8 -29 14.5t-32 10.5q-32 7 -70 7q-50 0 -89 -12q-20 -7 -37 -16t-31 -22q-29 -27 -42 -64q-15 -39 -14 -89h-20q-2 56 15 98t47 69
q30 28 74 42q41 14 97 14q40 0 79 -9q37 -9 68 -29q29 -19 48 -52q18 -32 18 -77q0 -73 -41 -112q-41 -40 -105 -46v-2q29 -3 58 -15q14 -5 27.5 -13.5t24.5 -19.5q22 -21 36 -53zM480 110q17 34 17 78v10t-1 10l-337 -174q7 -3 14.5 -6.5t15.5 -5.5q45 -15 98 -15
q40 0 79 12q37 10 67 34q29 25 47 57z" />
    <glyph glyph-name="four" unicode="4" horiz-adv-x="556" 
d="M523 197v-20h-124v-177h-20v177h-60v-177h-20v177h-265v24l340 480h25v-484h124zM299 197v347l-245 -347h245zM379 653h-2l-58 -81v-375h60v456z" />
    <glyph glyph-name="five" unicode="5" horiz-adv-x="556" 
d="M491 320q17 -41 17 -94q0 -28 -4 -52t-13 -47q-17 -44 -48 -75t-74 -47q-45 -17 -96 -17q-53 0 -97 16q-44 15 -76 44q-31 29 -49 72q-17 42 -15 98h20q-2 -52 14 -90q15 -40 43 -66q8 -7 15.5 -13t16.5 -11l343 180v8q0 47 -15 86q-8 20 -19 37t-25 32q-25 27 -68 44
q-39 16 -88 16q-59 0 -111 -26q-52 -28 -79 -78h-26l74 343h349v-20h-333l-62 -291h2q28 47 77 70q48 22 109 22q52 0 96 -18q44 -17 74 -48q31 -32 48 -75zM430 67q28 28 43 69q5 14 8.5 28t5.5 29l-322 -165q5 -2 9 -3.5t9 -3.5q42 -14 90 -14q51 0 90 16q40 15 67 44z
" />
    <glyph glyph-name="six" unicode="6" horiz-adv-x="556" 
d="M498 319q20 -45 20 -96q0 -26 -5 -49.5t-14 -45.5q-20 -44 -52 -74q-17 -15 -35.5 -27.5t-39.5 -20.5q-44 -18 -90 -18q-35 0 -65 9q-30 8 -56 24q-13 8 -24 16.5t-21 17.5q-21 21 -32 39q-29 44 -37 103q-5 29 -6.5 60t-1.5 64q0 63 12 129q12 65 41 120q30 54 79 88
t124 34q45 0 81 -13q34 -13 63 -37q27 -23 45 -54q16 -30 22 -68h-20q-10 45 -32 76q-22 29 -49 46q-28 17 -56 24q-29 6 -55 6q-76 0 -123 -38q-47 -37 -73 -96t-33 -125q-5 -34 -6.5 -65.5t-0.5 -60.5h2q3 18 10 34.5t17 32.5q23 32 50 54q29 23 67 37q38 13 78 13
q23 0 44 -4.5t43 -12.5q42 -17 75 -48q17 -16 30 -34.5t24 -39.5zM130 375q-29 -27 -46 -68q-16 -36 -17 -74h430q-2 41 -16 74q-9 20 -20.5 37t-26.5 31q-30 30 -68 46q-40 17 -84 17t-84 -17q-38 -16 -68 -46zM434 70q15 15 26.5 32t20.5 37q14 33 16 74h-430
q1 -38 17 -74q17 -40 46 -69q27 -27 68 -46q40 -17 84 -17t84 17q41 19 68 46z" />
    <glyph glyph-name="seven" unicode="7" horiz-adv-x="556" 
d="M495 681v-27q-35 -35 -66 -70t-60 -72q-56 -72 -97 -153q-20 -40 -35.5 -81.5t-26.5 -86.5q-22 -87 -22 -191h-20q-1 98 20 190q11 46 26.5 88.5t35.5 83.5q40 81 98 156q24 31 51 63h-338v20h355l57 60h-412v20h434z" />
    <glyph glyph-name="eight" unicode="8" horiz-adv-x="556" 
d="M479 316q47 -49 47 -127q0 -51 -20 -91q-20 -38 -54 -62q-33 -26 -78 -36q-45 -12 -96 -12q-50 0 -95 12q-45 10 -78 36q-34 24 -54 62q-20 40 -20 91q0 78 47 127q45 48 127 57v2q-26 3 -54 16q-27 14 -45 31q-20 20 -30 44q-11 27 -11 54q0 48 17 79q17 32 45 53
q30 22 68 31q39 9 83 9q45 0 84 -9q20 -5 36.5 -12.5t31.5 -18.5q28 -21 45 -53q17 -34 17 -79q0 -27 -11 -54q-10 -24 -30 -44q-18 -17 -45 -31q-28 -13 -54 -16v-2q82 -9 127 -57zM145 640q-26 -17 -43 -47q-15 -24 -16 -56h385q-1 32 -16 56q-17 30 -43 47q-29 18 -62 25
q-32 7 -72 7q-18 0 -36 -1.5t-35 -5.5q-33 -7 -62 -25zM148 414q27 -16 62 -24q17 -5 34 -6.5t34 -1.5t34.5 1.5t34.5 6.5q35 8 62 24t45 43q9 13 13 28t5 32h-387q0 -35 18 -60q18 -27 45 -43zM121 325q-31 -19 -51 -53q-17 -31 -19 -77h455q-2 46 -19 77q-20 34 -51 53
q-33 20 -72 29q-21 4 -42 6t-44 2q-22 0 -43 -2t-42 -6q-39 -9 -72 -29zM437 50q32 21 50 56q16 29 19 69h-455q3 -40 19 -69q18 -35 50 -56q31 -23 72 -33q21 -5 42 -7.5t44 -2.5t44.5 2.5t42.5 7.5q40 10 72 33z" />
    <glyph glyph-name="nine" unicode="9" horiz-adv-x="556" 
d="M510 482q4 -29 6 -59.5t2 -64.5q0 -65 -12 -129q-12 -65 -41 -119q-29 -53 -80 -88q-51 -34 -124 -34q-23 0 -43 3.5t-38 9.5q-38 14 -64 36q-26 23 -44 55q-16 30 -22 67h20q11 -47 32 -75q20 -28 48 -47q28 -17 57 -23q28 -7 55 -7q50 0 88 18q38 17 64 47q28 31 44 69
q8 20 14.5 40.5t11.5 42.5q9 42 12 86q2 22 2.5 42.5t-0.5 40.5h-2q-7 -35 -28 -67q-18 -30 -50 -55q-27 -23 -66 -37q-19 -6 -38.5 -9.5t-39.5 -3.5q-44 0 -87 17q-44 19 -76 48q-31 30 -53 75q-20 45 -20 96q0 52 19 94q19 43 52 74q17 17 35.5 29t39.5 21q43 17 90 17
q35 0 65 -9q31 -10 56 -25q24 -14 44 -34q11 -10 18.5 -19.5t14.5 -19.5q31 -46 38 -103zM121 609q-27 -27 -46 -68q-8 -17 -11.5 -35.5t-5.5 -38.5h431q-1 38 -17 74q-16 38 -46 68t-68 46q-40 17 -84 17q-43 0 -85 -17q-20 -8 -36.5 -20t-31.5 -26zM426 304q30 32 46 69
q16 36 17 74h-431q3 -42 17 -74q18 -40 46 -69q30 -28 68 -46q42 -17 85 -17q44 0 84 17q41 19 68 46z" />
    <glyph glyph-name="colon" unicode=":" horiz-adv-x="278" 
d="M110 59h59v-59h-59v59zM110 295h59v-59h-59v59zM169 531v-59h-59v59h59z" />
    <glyph glyph-name="semicolon" unicode=";" horiz-adv-x="278" 
d="M149 59h20v-58v-1q0 -45 -9 -73q-11 -28 -35 -45v20q13 13 19 36q5 25 5 62h-39v59h39zM110 295h59v-59h-59v59zM169 531v-59h-59v59h59z" />
    <glyph glyph-name="equal" unicode="=" horiz-adv-x="600" 
d="M428 340h-380v20h419zM175 166h378v-20h-417z" />
    <glyph glyph-name="question" unicode="?" horiz-adv-x="500" 
d="M433 637q16 -29 16 -71q0 -37 -11 -67q-11 -29 -26 -50q-14 -20 -32 -36q-9 -8 -16 -14.5t-13 -11.5l-25.5 -25.5t-20.5 -22.5q-18 -19 -31 -44q-11 -24 -17 -50q-2 -14 -3.5 -29.5t-1.5 -33.5h-20q0 17 1 32t4 29q2 14 6 27t10 25q11 26 30 49q17 22 47 51q5 5 22 19
t33 34q18 21 29 46l-309 161l-3 -3q-25 -28 -37 -69q-13 -43 -10 -89h-20q-3 53 12 97q13 43 42 75q14 16 31.5 28t37.5 21q40 17 94 17q20 0 39.5 -2.5t37.5 -8.5q36 -10 62 -32q27 -21 42 -52zM165 696q-27 -11 -46 -27l302 -155q8 26 8 52q0 33 -14 63q-13 27 -37 46
t-56 28t-70 9q-51 0 -87 -16zM212 59h59v-59h-59v59z" />
    <glyph glyph-name="A" unicode="A" 
d="M586 0h-22l-459 235l-95 -235h-22l289 715h26zM552 26l-261 669h-2l-176 -440z" />
    <glyph glyph-name="B" unicode="B" horiz-adv-x="611" 
d="M564 268q14 -34 14 -74q0 -46 -17 -85q-18 -37 -49 -60q-30 -23 -75 -37q-44 -12 -94 -12h-296v715h308q21 0 40.5 -2.5t37.5 -8.5q37 -10 64 -33q14 -11 25 -25t19 -31q15 -33 15 -78q0 -31 -11 -61q-12 -29 -32 -51q-20 -23 -48 -36q-27 -14 -60 -15v-2q33 -1 66 -14
q31 -12 56 -35q11 -11 20.5 -24.5t16.5 -30.5zM67 530l288 -147q36 0 68 9q31 9 58 29q25 19 40 49q15 28 15 67q0 40 -14 71q-14 30 -39 49q-22 18 -57 29q-33 9 -71 9h-288v-165zM542 116q16 32 16 77q0 47 -17 79t-47 52q-14 11 -30 18t-35 12q-36 9 -74 9l-288 147v-490
h285q45 0 81 10q37 10 65 32q27 21 44 54z" />
    <glyph glyph-name="C" unicode="C" horiz-adv-x="685" 
d="M663 279q-5 -32 -13.5 -62t-20.5 -57q-25 -54 -65 -94t-94 -61q-53 -22 -122 -22q-71 0 -131 27q-29 14 -55 33t-47 43q-21 25 -38 54t-29 63q-24 67 -24 148q0 32 5 65t14 67q18 66 59 123q39 55 104 90q61 35 155 35q70 0 124 -23q27 -12 49 -27t40 -32q36 -36 54 -76
q17 -39 19 -73h-20q-3 37 -23 76q-20 38 -55 68q-34 29 -82 49q-48 18 -106 18q-87 0 -149 -35q-61 -37 -97 -89q-38 -54 -54 -117q-17 -65 -17 -119q0 -38 6 -72l453 -236q14 8 25.5 17.5t22.5 20.5q37 37 61 88q22 49 31 110h20zM484 32l-429 220l9 -33q11 -32 25.5 -59.5
t34.5 -51.5q39 -48 95 -77q55 -29 129 -29q64 0 115 21z" />
    <glyph glyph-name="D" unicode="D" horiz-adv-x="648" 
d="M582 532q27 -69 27 -174q0 -97 -28 -165q-29 -68 -75 -111q-47 -43 -107 -62q-30 -11 -61.5 -15.5t-64.5 -4.5h-219v715h250q56 0 108 -16q54 -16 98 -57q23 -20 40.5 -47.5t31.5 -62.5zM74 695v-327h515q-2 95 -25 155q-26 65 -66 104q-41 38 -93 53q-51 15 -106 15
h-225zM565 208q23 60 24 140h-515v-328h204q62 0 120 20q56 21 99 62q42 41 68 106z" />
    <glyph glyph-name="E" unicode="E" horiz-adv-x="537" 
d="M533 20v-20h-479v715h475v-20h-455v-283h428v-20h-428v-9v-20v-31h428v-20h-428v-292h459z" />
    <glyph glyph-name="F" unicode="F" horiz-adv-x="481" 
d="M74 695v-283h381v-20h-381v-9v-20v-31h381v-20h-381v-312h-20v715h441v-20h-421z" />
    <glyph glyph-name="G" unicode="G" horiz-adv-x="722" 
d="M675 377v-20v-57v-47v-254h-20v177h-2q-29 -91 -104 -142t-182 -51q-82 0 -145 30q-62 28 -105 80q-41 48 -64 119q-21 67 -21 145q0 39 5.5 75.5t17.5 71.5q23 68 66 119q42 49 105 80q64 29 141 29q31 0 58 -4.5t53 -12.5q53 -19 89 -49q39 -31 64 -76q24 -44 33 -99
h-20q-9 50 -33 91q-22 40 -59 69q-34 29 -82 45q-23 8 -48.5 12t-54.5 4q-38 0 -71 -7t-62 -21q-57 -28 -100 -77q-40 -47 -61 -112t-21 -138q0 -37 4.5 -71.5t15.5 -66.5q20 -65 60 -113t100 -76q29 -14 64 -21t74 -7q59 0 112 21q53 20 90 57q38 35 61 87q22 50 22 110v3
h-277v20h277v57h-277v20h277h20z" />
    <glyph glyph-name="H" unicode="H" horiz-adv-x="648" 
d="M596 715v-715h-20v312h-502v-312h-20v715h20v-303h502v303h20zM576 392h-502v-60h502v60z" />
    <glyph glyph-name="I" unicode="I" horiz-adv-x="128" 
d="M74 332v-332h-20v322zM54 381v334h20v-323z" />
    <glyph glyph-name="J" unicode="J" horiz-adv-x="463" 
d="M404 714v-529q0 -46 -10 -82q-10 -35 -34 -64q-22 -26 -61 -42q-39 -14 -91 -14q-51 0 -88 14q-36 15 -59 41q-22 25 -33 61q-11 38 -11 78v43h20v-43q0 -77 33 -119l314 164v492h20zM372 106q12 37 12 92l-302 -154q43 -42 126 -42q21 0 40 2.5t35 7.5q32 9 55 33
q23 23 34 61z" />
    <glyph glyph-name="K" unicode="K" horiz-adv-x="593" 
d="M594 0l-324 425l-196 -172v-253h-20v715h20l199 -260l297 260h31l-315 -276l335 -439h-27zM258 441l-184 241v-402z" />
    <glyph glyph-name="L" unicode="L" horiz-adv-x="481" 
d="M74 80v-60h418v-20h-438v80v20v615h20v-615h419v-20h-419z" />
    <glyph glyph-name="M" unicode="M" horiz-adv-x="780" 
d="M727 716v-716h-20v691h-2l-304 -575l61 -116h-22l-50 95l-50 -95h-22l61 116l-303 575h-2v-691h-21v716h34l303 -579l304 579h33z" />
    <glyph glyph-name="N" unicode="N" horiz-adv-x="648" 
d="M595 716v-716h-20l-501 564v-564h-20v716h20l501 -564v564h20zM575 121l-501 564v-91l501 -564v91z" />
    <glyph glyph-name="O" unicode="O" horiz-adv-x="721" 
d="M670 501q21 -68 21 -144t-21 -145q-23 -69 -64 -119q-41 -51 -103 -80q-62 -30 -142 -30t-141 30q-62 29 -104 80q-40 51 -63 119q-21 69 -21 145t21 144q22 67 63 119q41 50 104 82q61 30 141 30t142 -30q31 -16 57 -36t46 -46q42 -51 64 -119zM74 499
q-10 -31 -15.5 -64.5t-6.5 -69.5h619q-1 71 -23 134q-22 67 -61 112q-38 46 -96 74q-57 27 -130 27q-72 0 -129 -27q-58 -27 -97 -74q-38 -45 -61 -112zM648 214q11 30 16 63t7 68h-619q3 -73 22 -131q23 -65 61 -112q20 -23 44 -41.5t53 -31.5q57 -27 129 -27q73 0 130 27
q56 25 96 73q40 47 61 112z" />
    <glyph glyph-name="P" unicode="P" horiz-adv-x="574" 
d="M54 0v716h290q102 0 160 -50q57 -48 57 -146q0 -49 -17 -84q-16 -34 -47 -61q-29 -23 -71 -37q-42 -12 -92 -12l-260 134v-460h-20zM344 346q40 0 78 11q37 12 63 34q14 11 23.5 25t17.5 30q15 31 15 74q0 85 -48 130q-51 46 -149 46h-270v-212z" />
    <glyph glyph-name="Q" unicode="Q" horiz-adv-x="721" 
d="M700 -8l-10 -14l-118 79q-40 -34 -92 -54q-26 -11 -56 -15.5t-63 -4.5q-80 0 -141 30q-61 27 -104 80q-40 51 -63 119q-21 69 -21 145t21 144q22 67 63 119q42 51 104 82q61 30 141 30t142 -30q31 -16 57 -36t46 -46q42 -51 64 -119q21 -68 21 -144q0 -84 -26 -160
q-25 -74 -80 -127zM468 20q24 8 45 20.5t41 28.5l-499 343q-3 -27 -3 -55q0 -39 5.5 -74.5t16.5 -68.5q23 -65 61 -112q20 -23 44 -41.5t53 -31.5q57 -27 129 -27q59 0 107 18zM568 82q49 48 75 117q26 68 28 158q-1 38 -6.5 74t-16.5 68q-22 67 -61 112q-38 46 -96 74
q-57 27 -130 27q-72 0 -129 -27q-58 -27 -97 -74q-38 -45 -61 -112q-5 -16 -9 -32.5t-7 -33.5z" />
    <glyph glyph-name="R" unicode="R" horiz-adv-x="611" 
d="M549 0l-475 678v-678h-20v716h290q102 0 160 -50q57 -48 57 -146q0 -49 -17 -84q-16 -34 -47 -61q-29 -23 -71 -37q-38 -11 -81 -12l226 -326h-22zM493 650q-51 46 -149 46h-257l244 -350h13q40 0 78 11q37 12 63 34q26 23 41 55q15 31 15 74q0 85 -48 130z" />
    <glyph glyph-name="S" unicode="S" horiz-adv-x="611" 
d="M131 410q-33 18 -55 52q-21 33 -21 85q0 54 22 89q20 34 57 56q33 21 79 31q43 9 86 9q53 0 98 -12q46 -12 78 -37q33 -24 54 -67q20 -43 23 -102h-20q-2 28 -6.5 51t-14.5 42q-9 19 -21.5 34t-27.5 27q-29 23 -73 34q-21 5 -43.5 7.5t-46.5 2.5q-34 0 -77 -8
q-40 -7 -73 -27q-32 -18 -53 -50t-21 -80q0 -49 21 -77q24 -30 56 -47q18 -9 37.5 -16t41.5 -12q14 -3 28.5 -6.5t28.5 -6.5l-27 -15q-14 3 -26.5 6t-25.5 7q-44 10 -78 30zM546 264q20 -34 20 -90q0 -49 -22 -87q-23 -37 -58 -59q-37 -25 -82 -35q-43 -10 -91 -10
q-59 0 -112 14q-53 13 -90 45q-37 29 -58 78q-20 50 -19 117h20q0 -67 19 -109q17 -44 53 -73q33 -28 83 -40q45 -13 104 -13q44 0 84 10q42 9 75 30q34 22 53 54q21 33 21 79q0 54 -24 86q-23 32 -60 50q-35 19 -81 28q-8 2 -17 4t-17 4l27 13q11 -3 21 -6t21 -5
q43 -12 78 -32q33 -21 52 -53z" />
    <glyph glyph-name="T" unicode="T" horiz-adv-x="500" 
d="M518 656v-20h-258v-636h-20v636h-257v20h257v40h-257v20h534v-20h-257v-40h258z" />
    <glyph glyph-name="U" unicode="U" horiz-adv-x="632" 
d="M578 715v-449q0 -146 -67 -214q-66 -69 -195 -69t-196 69q-67 70 -67 214v449h20v-436l419 -218q2 2 3.5 4t3.5 4q59 66 59 197v449h20zM132 69q60 -67 184 -67q103 0 161 46l-404 207q3 -121 59 -186z" />
    <glyph glyph-name="V" unicode="V" horiz-adv-x="538" 
d="M557 716l-273 -716h-22l-279 716h19l270 -690h2l30 77l-240 613h19l231 -587l223 587h20z" />
    <glyph glyph-name="W" unicode="W" horiz-adv-x="870" 
d="M882 716l-272 -716h-22l-150 382l-145 -382h-22l-280 715h19l271 -689h2l145 382l-120 307h19l111 -282l107 283h20l-117 -309l150 -381h2l262 690h20z" />
    <glyph glyph-name="X" unicode="X" horiz-adv-x="520" 
d="M547 0h-22h-3h-524h-3h-22l274 368l-259 348h25l247 -332l250 332h25l-261 -348zM507 20l-247 332l-247 -332h494z" />
    <glyph glyph-name="Y" unicode="Y" horiz-adv-x="538" 
d="M567 716l-498 -716h-30l216 306l-286 410h25l273 -392l276 392h24z" />
    <glyph glyph-name="Z" unicode="Z" horiz-adv-x="500" 
d="M508 20v-20h-527v27l426 669h-399v20h492v-28l-427 -668h435zM49 20l431 676h-49l-431 -676h49z" />
    <glyph glyph-name="backslash" unicode="\" horiz-adv-x="333" 
d="M339 -17h-19l-148 339l25 -13zM13 731l149 -341l-26 14l-143 327h20z" />
    <glyph glyph-name="asciicircum" unicode="^" horiz-adv-x="600" 
d="M541 227h-20l-221 433l-221 -433h-20l231 453h20z" />
    <glyph glyph-name="c" unicode="c" horiz-adv-x="685" 
d="M663 279q-5 -32 -13.5 -62t-20.5 -57q-25 -54 -65 -94t-94 -61q-53 -22 -122 -22q-71 0 -131 27q-29 14 -55 33t-47 43q-21 25 -38 54t-29 63q-24 67 -24 148q0 32 5 65t14 67q18 66 59 123q39 55 104 90q61 35 155 35q70 0 124 -23q27 -12 49 -27t40 -32q36 -36 54 -76
q17 -39 19 -73h-20q-3 37 -23 76q-20 38 -55 68q-34 29 -82 49q-48 18 -106 18q-87 0 -149 -35q-61 -37 -97 -89q-38 -54 -54 -117q-17 -65 -17 -119q0 -38 6 -72l453 -236q14 8 25.5 17.5t22.5 20.5q37 37 61 88q22 49 31 110h20zM484 32l-429 220l9 -33q11 -32 25.5 -59.5
t34.5 -51.5q39 -48 95 -77q55 -29 129 -29q64 0 115 21z" />
    <glyph glyph-name="d" unicode="d" horiz-adv-x="648" 
d="M582 532q27 -69 27 -174q0 -97 -28 -165q-29 -68 -75 -111q-47 -43 -107 -62q-30 -11 -61.5 -15.5t-64.5 -4.5h-219v715h250q56 0 108 -16q54 -16 98 -57q23 -20 40.5 -47.5t31.5 -62.5zM74 695v-327h515q-2 95 -25 155q-26 65 -66 104q-41 38 -93 53q-51 15 -106 15
h-225zM565 208q23 60 24 140h-515v-328h204q62 0 120 20q56 21 99 62q42 41 68 106z" />
    <glyph glyph-name="e" unicode="e" horiz-adv-x="537" 
d="M533 20v-20h-479v715h475v-20h-455v-283h428v-20h-428v-9v-20v-31h428v-20h-428v-292h459z" />
    <glyph glyph-name="f" unicode="f" horiz-adv-x="481" 
d="M74 695v-283h381v-20h-381v-9v-20v-31h381v-20h-381v-312h-20v715h441v-20h-421z" />
    <glyph glyph-name="g" unicode="g" horiz-adv-x="722" 
d="M675 377v-20v-57v-47v-254h-20v177h-2q-29 -91 -104 -142t-182 -51q-82 0 -145 30q-62 28 -105 80q-41 48 -64 119q-21 67 -21 145q0 39 5.5 75.5t17.5 71.5q23 68 66 119q42 49 105 80q64 29 141 29q31 0 58 -4.5t53 -12.5q53 -19 89 -49q39 -31 64 -76q24 -44 33 -99
h-20q-9 50 -33 91q-22 40 -59 69q-34 29 -82 45q-23 8 -48.5 12t-54.5 4q-38 0 -71 -7t-62 -21q-57 -28 -100 -77q-40 -47 -61 -112t-21 -138q0 -37 4.5 -71.5t15.5 -66.5q20 -65 60 -113t100 -76q29 -14 64 -21t74 -7q59 0 112 21q53 20 90 57q38 35 61 87q22 50 22 110v3
h-277v20h277v57h-277v20h277h20z" />
    <glyph glyph-name="h" unicode="h" horiz-adv-x="648" 
d="M596 715v-715h-20v312h-502v-312h-20v715h20v-303h502v303h20zM576 392h-502v-60h502v60z" />
    <glyph glyph-name="i" unicode="i" horiz-adv-x="128" 
d="M74 332v-332h-20v322zM54 381v334h20v-323z" />
    <glyph glyph-name="j" unicode="j" horiz-adv-x="463" 
d="M404 714v-529q0 -46 -10 -82q-10 -35 -34 -64q-22 -26 -61 -42q-39 -14 -91 -14q-51 0 -88 14q-36 15 -59 41q-22 25 -33 61q-11 38 -11 78v43h20v-43q0 -77 33 -119l314 164v492h20zM372 106q12 37 12 92l-302 -154q43 -42 126 -42q21 0 40 2.5t35 7.5q32 9 55 33
q23 23 34 61z" />
    <glyph glyph-name="k" unicode="k" horiz-adv-x="593" 
d="M594 0l-324 425l-196 -172v-253h-20v715h20l199 -260l297 260h31l-315 -276l335 -439h-27zM258 441l-184 241v-402z" />
    <glyph glyph-name="l" unicode="l" horiz-adv-x="481" 
d="M74 80v-60h418v-20h-438v80v20v615h20v-615h419v-20h-419z" />
    <glyph glyph-name="m" unicode="m" horiz-adv-x="780" 
d="M727 716v-716h-20v691h-2l-304 -575l61 -116h-22l-50 95l-50 -95h-22l61 116l-303 575h-2v-691h-21v716h34l303 -579l304 579h33z" />
    <glyph glyph-name="n" unicode="n" horiz-adv-x="648" 
d="M595 716v-716h-20l-501 564v-564h-20v716h20l501 -564v564h20zM575 121l-501 564v-91l501 -564v91z" />
    <glyph glyph-name="o" unicode="o" horiz-adv-x="721" 
d="M670 501q21 -68 21 -144t-21 -145q-23 -69 -64 -119q-41 -51 -103 -80q-62 -30 -142 -30t-141 30q-62 29 -104 80q-40 51 -63 119q-21 69 -21 145t21 144q22 67 63 119q41 50 104 82q61 30 141 30t142 -30q31 -16 57 -36t46 -46q42 -51 64 -119zM74 499
q-10 -31 -15.5 -64.5t-6.5 -69.5h619q-1 71 -23 134q-22 67 -61 112q-38 46 -96 74q-57 27 -130 27q-72 0 -129 -27q-58 -27 -97 -74q-38 -45 -61 -112zM648 214q11 30 16 63t7 68h-619q3 -73 22 -131q23 -65 61 -112q20 -23 44 -41.5t53 -31.5q57 -27 129 -27q73 0 130 27
q56 25 96 73q40 47 61 112z" />
    <glyph glyph-name="p" unicode="p" horiz-adv-x="574" 
d="M54 0v716h290q102 0 160 -50q57 -48 57 -146q0 -49 -17 -84q-16 -34 -47 -61q-29 -23 -71 -37q-42 -12 -92 -12l-260 134v-460h-20zM344 346q40 0 78 11q37 12 63 34q14 11 23.5 25t17.5 30q15 31 15 74q0 85 -48 130q-51 46 -149 46h-270v-212z" />
    <glyph glyph-name="q" unicode="q" horiz-adv-x="721" 
d="M700 -8l-10 -14l-118 79q-40 -34 -92 -54q-26 -11 -56 -15.5t-63 -4.5q-80 0 -141 30q-61 27 -104 80q-40 51 -63 119q-21 69 -21 145t21 144q22 67 63 119q42 51 104 82q61 30 141 30t142 -30q31 -16 57 -36t46 -46q42 -51 64 -119q21 -68 21 -144q0 -84 -26 -160
q-25 -74 -80 -127zM468 20q24 8 45 20.5t41 28.5l-499 343q-3 -27 -3 -55q0 -39 5.5 -74.5t16.5 -68.5q23 -65 61 -112q20 -23 44 -41.5t53 -31.5q57 -27 129 -27q59 0 107 18zM568 82q49 48 75 117q26 68 28 158q-1 38 -6.5 74t-16.5 68q-22 67 -61 112q-38 46 -96 74
q-57 27 -130 27q-72 0 -129 -27q-58 -27 -97 -74q-38 -45 -61 -112q-5 -16 -9 -32.5t-7 -33.5z" />
    <glyph glyph-name="r" unicode="r" horiz-adv-x="611" 
d="M549 0l-475 678v-678h-20v716h290q102 0 160 -50q57 -48 57 -146q0 -49 -17 -84q-16 -34 -47 -61q-29 -23 -71 -37q-38 -11 -81 -12l226 -326h-22zM493 650q-51 46 -149 46h-257l244 -350h13q40 0 78 11q37 12 63 34q26 23 41 55q15 31 15 74q0 85 -48 130z" />
    <glyph glyph-name="s" unicode="s" horiz-adv-x="611" 
d="M131 410q-33 18 -55 52q-21 33 -21 85q0 54 22 89q20 34 57 56q33 21 79 31q43 9 86 9q53 0 98 -12q46 -12 78 -37q33 -24 54 -67q20 -43 23 -102h-20q-2 28 -6.5 51t-14.5 42q-9 19 -21.5 34t-27.5 27q-29 23 -73 34q-21 5 -43.5 7.5t-46.5 2.5q-34 0 -77 -8
q-40 -7 -73 -27q-32 -18 -53 -50t-21 -80q0 -49 21 -77q24 -30 56 -47q18 -9 37.5 -16t41.5 -12q14 -3 28.5 -6.5t28.5 -6.5l-27 -15q-14 3 -26.5 6t-25.5 7q-44 10 -78 30zM546 264q20 -34 20 -90q0 -49 -22 -87q-23 -37 -58 -59q-37 -25 -82 -35q-43 -10 -91 -10
q-59 0 -112 14q-53 13 -90 45q-37 29 -58 78q-20 50 -19 117h20q0 -67 19 -109q17 -44 53 -73q33 -28 83 -40q45 -13 104 -13q44 0 84 10q42 9 75 30q34 22 53 54q21 33 21 79q0 54 -24 86q-23 32 -60 50q-35 19 -81 28q-8 2 -17 4t-17 4l27 13q11 -3 21 -6t21 -5
q43 -12 78 -32q33 -21 52 -53z" />
    <glyph glyph-name="t" unicode="t" horiz-adv-x="500" 
d="M518 656v-20h-258v-636h-20v636h-257v20h257v40h-257v20h534v-20h-257v-40h258z" />
    <glyph glyph-name="u" unicode="u" horiz-adv-x="632" 
d="M578 715v-449q0 -146 -67 -214q-66 -69 -195 -69t-196 69q-67 70 -67 214v449h20v-436l419 -218q2 2 3.5 4t3.5 4q59 66 59 197v449h20zM132 69q60 -67 184 -67q103 0 161 46l-404 207q3 -121 59 -186z" />
    <glyph glyph-name="v" unicode="v" horiz-adv-x="538" 
d="M557 716l-273 -716h-22l-279 716h19l270 -690h2l30 77l-240 613h19l231 -587l223 587h20z" />
    <glyph glyph-name="w" unicode="w" horiz-adv-x="870" 
d="M882 716l-272 -716h-22l-150 382l-145 -382h-22l-280 715h19l271 -689h2l145 382l-120 307h19l111 -282l107 283h20l-117 -309l150 -381h2l262 690h20z" />
    <glyph glyph-name="x" unicode="x" horiz-adv-x="520" 
d="M547 0h-22h-3h-524h-3h-22l274 368l-259 348h25l247 -332l250 332h25l-261 -348zM507 20l-247 332l-247 -332h494z" />
    <glyph glyph-name="y" unicode="y" horiz-adv-x="538" 
d="M567 716l-498 -716h-30l216 306l-286 410h25l273 -392l276 392h24z" />
    <glyph glyph-name="z" unicode="z" horiz-adv-x="500" 
d="M508 20v-20h-527v27l426 669h-399v20h492v-28l-427 -668h435zM49 20l431 676h-49l-431 -676h49z" />
    <glyph glyph-name="asciitilde" unicode="~" horiz-adv-x="600" 
d="M523 295q-10 -16 -21 -31.5t-24 -27.5t-29 -19.5t-35 -7.5q-25 0 -48 10.5t-49 21.5q-26 12 -54.5 24.5t-67.5 12.5q-34 0 -57 -20.5t-41 -52.5l-20 6q19 35 47.5 61t70.5 26q27 2 57.5 -9t59.5 -25q30 -13 56.5 -24t46.5 -11q15 0 27.5 6.5t23 16.5t19.5 23l18 26z" />
    <glyph glyph-name="questiondown" unicode="&#xbf;" horiz-adv-x="500" 
d="M66 -95q-16 29 -16 71q0 37 11 67q11 29 26 50q14 20 32 36q9 8 16 14.5t13 11.5l25.5 25.5t20.5 22.5q18 19 31 44q11 24 17 50q2 14 3.5 29.5t1.5 33.5h20q0 -17 -1 -32t-4 -29q-2 -14 -6 -27t-10 -25q-11 -26 -30 -49q-17 -22 -47 -51q-6 -6 -22 -19
q-8 -6 -16.5 -14.5t-16.5 -19.5q-18 -21 -29 -46l309 -161l3 3q25 28 37 69q13 43 10 89h20q3 -53 -12 -97q-14 -44 -42 -75q-14 -16 -31.5 -28t-37.5 -21q-40 -17 -94 -17q-20 0 -39.5 2.5t-37.5 8.5q-36 10 -62 32q-27 21 -42 52zM334 -154q27 11 46 27l-302 155
q-8 -26 -8 -52q0 -33 14 -63q13 -27 37 -46t56 -28q31 -9 70 -9q51 0 87 16zM287 483h-59v59h59v-59z" />
    <glyph glyph-name="grave" unicode="`" horiz-adv-x="130" 
d="M-38 731h29l125 -144h-15z" />
    <glyph glyph-name="acute" unicode="&#xb4;" horiz-adv-x="130" 
d="M171 731l-146 -144h-15l132 144h29z" />
    <glyph glyph-name="dieresis" unicode="&#xa8;" horiz-adv-x="130" 
d="M-23 590v81h20v-81h-20zM133 590v81h20v-81h-20z" />
    <glyph glyph-name="Lslash" unicode="&#x141;" horiz-adv-x="481" 
d="M74 80v-60h418v-20h-438v269l-74 -52v24l74 52v422h20v-408l248 174v-24l-248 -174v-183h419v-20h-419z" />
    <glyph glyph-name="lslash" unicode="&#x142;" horiz-adv-x="481" 
d="M74 80v-60h418v-20h-438v269l-74 -52v24l74 52v422h20v-408l248 174v-24l-248 -174v-183h419v-20h-419z" />
    <glyph glyph-name="Aacute" unicode="&#xc1;" 
d="M394 909l-146 -144h-15l132 144h29zM586 0h-22l-459 235l-95 -235h-22l289 715h26zM552 26l-261 669h-2l-176 -440z" />
    <glyph glyph-name="Acircumflex" unicode="&#xc2;" 
d="M389 770l-103 123l-99 -123h-20l113 139h15l114 -139h-20zM586 0h-22l-459 235l-95 -235h-22l289 715h26zM552 26l-261 669h-2l-176 -440z" />
    <glyph glyph-name="Adieresis" unicode="&#xc4;" 
d="M200 768v81h20v-81h-20zM356 768v81h20v-81h-20zM586 0h-22l-459 235l-95 -235h-22l289 715h26zM552 26l-261 669h-2l-176 -440z" />
    <glyph glyph-name="Agrave" unicode="&#xc0;" 
d="M185 909h29l125 -144h-15zM586 0h-22l-459 235l-95 -235h-22l289 715h26zM552 26l-261 669h-2l-176 -440z" />
    <glyph glyph-name="Aring" unicode="&#xc5;" 
d="M376 824q0 -18 -7 -34t-19 -28t-28 -19t-34 -7t-34 7t-28 19t-19 28t-7 34t7 34t19 28t28 19t34 7t34 -7t28 -19t19 -28t7 -34zM356 824q0 28 -20 48t-48 20t-48 -20t-20 -48t20 -48t48 -20t48 20t20 48zM586 0h-22l-459 235l-95 -235h-22l289 715h26zM552 26l-261 669
h-2l-176 -440z" />
    <glyph glyph-name="Atilde" unicode="&#xc3;" 
d="M156 780q0 14 5.5 28t15 25.5t22 18.5t25.5 7q17 0 33.5 -9t32.5 -20t31 -20t30 -9q23 0 36 17t13 38h20q0 -29 -17 -52t-52 -23q-19 0 -35 9t-31 20t-30 20t-31 9q-11 0 -19.5 -5.5t-15 -14.5t-10 -19.5t-3.5 -19.5h-20zM586 0h-22l-459 235l-95 -235h-22l289 715h26z
M552 26l-261 669h-2l-176 -440z" />
    <glyph glyph-name="Ccedilla" unicode="&#xc7;" horiz-adv-x="685" 
d="M663 279q-5 -32 -13.5 -62t-20.5 -57q-25 -54 -65 -94t-94 -61q-51 -20 -117 -22l-29 -39q7 1 13 3.5t20 2.5q29 0 52 -13.5t23 -46.5q0 -22 -8 -36t-21.5 -22.5t-31.5 -11.5t-37 -3q-26 0 -47 6t-35 11l9 19q17 -6 35 -11t38 -5q14 0 28 2.5t25 8.5t18 16.5t7 25.5
q0 10 -6 18t-14 12.5t-18 7t-17 2.5q-32 0 -54 -13l-15 10l43 57q-64 3 -114 26q-29 14 -55 33t-47 43q-21 25 -38 54t-29 63q-24 67 -24 148q0 32 5 65t14 67q18 66 59 123q39 55 104 90q61 35 155 35q70 0 124 -23q27 -12 49 -27t40 -32q36 -36 54 -76q17 -39 19 -73h-20
q-3 37 -23 76q-20 38 -55 68q-34 29 -82 49q-48 18 -106 18q-87 0 -149 -35q-61 -37 -97 -89q-38 -54 -54 -117q-17 -65 -17 -119q0 -38 6 -72l453 -236q14 8 25.5 17.5t22.5 20.5q37 37 61 88q22 49 31 110h20zM484 32l-429 220l9 -33q11 -32 25.5 -59.5t34.5 -51.5
q39 -48 95 -77q55 -29 129 -29q64 0 115 21z" />
    <glyph glyph-name="Eacute" unicode="&#xc9;" horiz-adv-x="537" 
d="M375 909l-146 -144h-15l132 144h29zM533 20v-20h-479v715h475v-20h-455v-283h428v-20h-428v-9v-20v-31h428v-20h-428v-292h459z" />
    <glyph glyph-name="Ecircumflex" unicode="&#xca;" horiz-adv-x="537" 
d="M370 770l-103 123l-99 -123h-20l113 139h15l114 -139h-20zM533 20v-20h-479v715h475v-20h-455v-283h428v-20h-428v-9v-20v-31h428v-20h-428v-292h459z" />
    <glyph glyph-name="Edieresis" unicode="&#xcb;" horiz-adv-x="537" 
d="M181 768v81h20v-81h-20zM337 768v81h20v-81h-20zM533 20v-20h-479v715h475v-20h-455v-283h428v-20h-428v-9v-20v-31h428v-20h-428v-292h459z" />
    <glyph glyph-name="Egrave" unicode="&#xc8;" horiz-adv-x="537" 
d="M166 909h29l125 -144h-15zM533 20v-20h-479v715h475v-20h-455v-283h428v-20h-428v-9v-20v-31h428v-20h-428v-292h459z" />
    <glyph glyph-name="Iacute" unicode="&#xcd;" horiz-adv-x="128" 
d="M170 909l-146 -144h-15l132 144h29zM74 332v-332h-20v322zM54 381v334h20v-323z" />
    <glyph glyph-name="Icircumflex" unicode="&#xce;" horiz-adv-x="128" 
d="M165 770l-103 123l-99 -123h-20l113 139h15l114 -139h-20zM74 332v-332h-20v322zM54 381v334h20v-323z" />
    <glyph glyph-name="Idieresis" unicode="&#xcf;" horiz-adv-x="128" 
d="M-24 768v81h20v-81h-20zM132 768v81h20v-81h-20zM74 332v-332h-20v322zM54 381v334h20v-323z" />
    <glyph glyph-name="Igrave" unicode="&#xcc;" horiz-adv-x="128" 
d="M-39 909h29l125 -144h-15zM74 332v-332h-20v322zM54 381v334h20v-323z" />
    <glyph glyph-name="Ntilde" unicode="&#xd1;" horiz-adv-x="648" 
d="M192 780q0 14 5.5 28t15 25.5t22 18.5t25.5 7q17 0 33.5 -9t32.5 -20t31 -20t30 -9q23 0 36 17t13 38h20q0 -29 -17 -52t-52 -23q-19 0 -35 9t-31 20t-30 20t-31 9q-11 0 -19.5 -5.5t-15 -14.5t-10 -19.5t-3.5 -19.5h-20zM595 716v-716h-20l-501 564v-564h-20v716h20
l501 -564v564h20zM575 121l-501 564v-91l501 -564v91z" />
    <glyph glyph-name="Oacute" unicode="&#xd3;" horiz-adv-x="721" 
d="M467 909l-146 -144h-15l132 144h29zM670 501q21 -68 21 -144t-21 -145q-23 -69 -64 -119q-41 -51 -103 -80q-62 -30 -142 -30t-141 30q-62 29 -104 80q-40 51 -63 119q-21 69 -21 145t21 144q22 67 63 119q41 50 104 82q61 30 141 30t142 -30q31 -16 57 -36t46 -46
q42 -51 64 -119zM74 499q-10 -31 -15.5 -64.5t-6.5 -69.5h619q-1 71 -23 134q-22 67 -61 112q-38 46 -96 74q-57 27 -130 27q-72 0 -129 -27q-58 -27 -97 -74q-38 -45 -61 -112zM648 214q11 30 16 63t7 68h-619q3 -73 22 -131q23 -65 61 -112q20 -23 44 -41.5t53 -31.5
q57 -27 129 -27q73 0 130 27q56 25 96 73q40 47 61 112z" />
    <glyph glyph-name="Ocircumflex" unicode="&#xd4;" horiz-adv-x="721" 
d="M462 770l-103 123l-99 -123h-20l113 139h15l114 -139h-20zM670 501q21 -68 21 -144t-21 -145q-23 -69 -64 -119q-41 -51 -103 -80q-62 -30 -142 -30t-141 30q-62 29 -104 80q-40 51 -63 119q-21 69 -21 145t21 144q22 67 63 119q41 50 104 82q61 30 141 30t142 -30
q31 -16 57 -36t46 -46q42 -51 64 -119zM74 499q-10 -31 -15.5 -64.5t-6.5 -69.5h619q-1 71 -23 134q-22 67 -61 112q-38 46 -96 74q-57 27 -130 27q-72 0 -129 -27q-58 -27 -97 -74q-38 -45 -61 -112zM648 214q11 30 16 63t7 68h-619q3 -73 22 -131q23 -65 61 -112
q20 -23 44 -41.5t53 -31.5q57 -27 129 -27q73 0 130 27q56 25 96 73q40 47 61 112z" />
    <glyph glyph-name="Odieresis" unicode="&#xd6;" horiz-adv-x="721" 
d="M273 768v81h20v-81h-20zM429 768v81h20v-81h-20zM670 501q21 -68 21 -144t-21 -145q-23 -69 -64 -119q-41 -51 -103 -80q-62 -30 -142 -30t-141 30q-62 29 -104 80q-40 51 -63 119q-21 69 -21 145t21 144q22 67 63 119q41 50 104 82q61 30 141 30t142 -30q31 -16 57 -36
t46 -46q42 -51 64 -119zM74 499q-10 -31 -15.5 -64.5t-6.5 -69.5h619q-1 71 -23 134q-22 67 -61 112q-38 46 -96 74q-57 27 -130 27q-72 0 -129 -27q-58 -27 -97 -74q-38 -45 -61 -112zM648 214q11 30 16 63t7 68h-619q3 -73 22 -131q23 -65 61 -112q20 -23 44 -41.5
t53 -31.5q57 -27 129 -27q73 0 130 27q56 25 96 73q40 47 61 112z" />
    <glyph glyph-name="Ograve" unicode="&#xd2;" horiz-adv-x="721" 
d="M258 909h29l125 -144h-15zM670 501q21 -68 21 -144t-21 -145q-23 -69 -64 -119q-41 -51 -103 -80q-62 -30 -142 -30t-141 30q-62 29 -104 80q-40 51 -63 119q-21 69 -21 145t21 144q22 67 63 119q41 50 104 82q61 30 141 30t142 -30q31 -16 57 -36t46 -46q42 -51 64 -119
zM74 499q-10 -31 -15.5 -64.5t-6.5 -69.5h619q-1 71 -23 134q-22 67 -61 112q-38 46 -96 74q-57 27 -130 27q-72 0 -129 -27q-58 -27 -97 -74q-38 -45 -61 -112zM648 214q11 30 16 63t7 68h-619q3 -73 22 -131q23 -65 61 -112q20 -23 44 -41.5t53 -31.5q57 -27 129 -27
q73 0 130 27q56 25 96 73q40 47 61 112z" />
    <glyph glyph-name="Otilde" unicode="&#xd5;" horiz-adv-x="721" 
d="M229 780q0 14 5.5 28t15 25.5t22 18.5t25.5 7q17 0 33.5 -9t32.5 -20t31 -20t30 -9q23 0 36 17t13 38h20q0 -29 -17 -52t-52 -23q-19 0 -35 9t-31 20t-30 20t-31 9q-11 0 -19.5 -5.5t-15 -14.5t-10 -19.5t-3.5 -19.5h-20zM670 501q21 -68 21 -144t-21 -145
q-23 -69 -64 -119q-41 -51 -103 -80q-62 -30 -142 -30t-141 30q-62 29 -104 80q-40 51 -63 119q-21 69 -21 145t21 144q22 67 63 119q41 50 104 82q61 30 141 30t142 -30q31 -16 57 -36t46 -46q42 -51 64 -119zM74 499q-10 -31 -15.5 -64.5t-6.5 -69.5h619q-1 71 -23 134
q-22 67 -61 112q-38 46 -96 74q-57 27 -130 27q-72 0 -129 -27q-58 -27 -97 -74q-38 -45 -61 -112zM648 214q11 30 16 63t7 68h-619q3 -73 22 -131q23 -65 61 -112q20 -23 44 -41.5t53 -31.5q57 -27 129 -27q73 0 130 27q56 25 96 73q40 47 61 112z" />
    <glyph glyph-name="Scaron" unicode="&#x160;" horiz-adv-x="611" 
d="M205 931l103 -123l99 123h20l-113 -139h-15l-114 139h20zM131 410q-33 18 -55 52q-21 33 -21 85q0 54 22 89q20 34 57 56q33 21 79 31q43 9 86 9q53 0 98 -12q46 -12 78 -37q33 -24 54 -67q20 -43 23 -102h-20q-2 28 -6.5 51t-14.5 42q-9 19 -21.5 34t-27.5 27
q-29 23 -73 34q-21 5 -43.5 7.5t-46.5 2.5q-34 0 -77 -8q-40 -7 -73 -27q-32 -18 -53 -50t-21 -80q0 -49 21 -77q24 -30 56 -47q18 -9 37.5 -16t41.5 -12q14 -3 28.5 -6.5t28.5 -6.5l-27 -15q-14 3 -26.5 6t-25.5 7q-44 10 -78 30zM546 264q20 -34 20 -90q0 -49 -22 -87
q-23 -37 -58 -59q-37 -25 -82 -35q-43 -10 -91 -10q-59 0 -112 14q-53 13 -90 45q-37 29 -58 78q-20 50 -19 117h20q0 -67 19 -109q17 -44 53 -73q33 -28 83 -40q45 -13 104 -13q44 0 84 10q42 9 75 30q34 22 53 54q21 33 21 79q0 54 -24 86q-23 32 -60 50q-35 19 -81 28
q-8 2 -17 4t-17 4l27 13q11 -3 21 -6t21 -5q43 -12 78 -32q33 -21 52 -53z" />
    <glyph glyph-name="Uacute" unicode="&#xda;" horiz-adv-x="632" 
d="M422 909l-146 -144h-15l132 144h29zM578 715v-449q0 -146 -67 -214q-66 -69 -195 -69t-196 69q-67 70 -67 214v449h20v-436l419 -218q2 2 3.5 4t3.5 4q59 66 59 197v449h20zM132 69q60 -67 184 -67q103 0 161 46l-404 207q3 -121 59 -186z" />
    <glyph glyph-name="Ucircumflex" unicode="&#xdb;" horiz-adv-x="632" 
d="M417 770l-103 123l-99 -123h-20l113 139h15l114 -139h-20zM578 715v-449q0 -146 -67 -214q-66 -69 -195 -69t-196 69q-67 70 -67 214v449h20v-436l419 -218q2 2 3.5 4t3.5 4q59 66 59 197v449h20zM132 69q60 -67 184 -67q103 0 161 46l-404 207q3 -121 59 -186z" />
    <glyph glyph-name="Udieresis" unicode="&#xdc;" horiz-adv-x="632" 
d="M228 768v81h20v-81h-20zM384 768v81h20v-81h-20zM578 715v-449q0 -146 -67 -214q-66 -69 -195 -69t-196 69q-67 70 -67 214v449h20v-436l419 -218q2 2 3.5 4t3.5 4q59 66 59 197v449h20zM132 69q60 -67 184 -67q103 0 161 46l-404 207q3 -121 59 -186z" />
    <glyph glyph-name="Ugrave" unicode="&#xd9;" horiz-adv-x="632" 
d="M213 909h29l125 -144h-15zM578 715v-449q0 -146 -67 -214q-66 -69 -195 -69t-196 69q-67 70 -67 214v449h20v-436l419 -218q2 2 3.5 4t3.5 4q59 66 59 197v449h20zM132 69q60 -67 184 -67q103 0 161 46l-404 207q3 -121 59 -186z" />
    <glyph glyph-name="Yacute" unicode="&#xdd;" horiz-adv-x="538" 
d="M375 931l-146 -144h-15l132 144h29zM567 716l-498 -716h-30l216 306l-286 410h25l273 -392l276 392h24z" />
    <glyph glyph-name="Ydieresis" unicode="&#x178;" horiz-adv-x="538" 
d="M181 768v81h20v-81h-20zM337 768v81h20v-81h-20zM567 716l-498 -716h-30l216 306l-286 410h25l273 -392l276 392h24z" />
    <glyph glyph-name="Zcaron" unicode="&#x17d;" horiz-adv-x="500" 
d="M149 931l103 -123l99 123h20l-113 -139h-15l-114 139h20zM508 20v-20h-527v27l426 669h-399v20h492v-28l-427 -668h435zM49 20l431 676h-49l-431 -676h49z" />
    <glyph glyph-name="aacute" unicode="&#xe1;" 
d="M394 909l-146 -144h-15l132 144h29zM586 0h-22l-459 235l-95 -235h-22l289 715h26zM552 26l-261 669h-2l-176 -440z" />
    <glyph glyph-name="acircumflex" unicode="&#xe2;" 
d="M389 770l-103 123l-99 -123h-20l113 139h15l114 -139h-20zM586 0h-22l-459 235l-95 -235h-22l289 715h26zM552 26l-261 669h-2l-176 -440z" />
    <glyph glyph-name="adieresis" unicode="&#xe4;" 
d="M200 768v81h20v-81h-20zM356 768v81h20v-81h-20zM586 0h-22l-459 235l-95 -235h-22l289 715h26zM552 26l-261 669h-2l-176 -440z" />
    <glyph glyph-name="agrave" unicode="&#xe0;" 
d="M185 909h29l125 -144h-15zM586 0h-22l-459 235l-95 -235h-22l289 715h26zM552 26l-261 669h-2l-176 -440z" />
    <glyph glyph-name="aring" unicode="&#xe5;" 
d="M376 824q0 -18 -7 -34t-19 -28t-28 -19t-34 -7t-34 7t-28 19t-19 28t-7 34t7 34t19 28t28 19t34 7t34 -7t28 -19t19 -28t7 -34zM356 824q0 28 -20 48t-48 20t-48 -20t-20 -48t20 -48t48 -20t48 20t20 48zM586 0h-22l-459 235l-95 -235h-22l289 715h26zM552 26l-261 669
h-2l-176 -440z" />
    <glyph glyph-name="atilde" unicode="&#xe3;" 
d="M156 780q0 14 5.5 28t15 25.5t22 18.5t25.5 7q17 0 33.5 -9t32.5 -20t31 -20t30 -9q23 0 36 17t13 38h20q0 -29 -17 -52t-52 -23q-19 0 -35 9t-31 20t-30 20t-31 9q-11 0 -19.5 -5.5t-15 -14.5t-10 -19.5t-3.5 -19.5h-20zM586 0h-22l-459 235l-95 -235h-22l289 715h26z
M552 26l-261 669h-2l-176 -440z" />
    <glyph glyph-name="ccedilla" unicode="&#xe7;" horiz-adv-x="685" 
d="M663 279q-5 -32 -13.5 -62t-20.5 -57q-25 -54 -65 -94t-94 -61q-51 -20 -117 -22l-29 -39q7 1 13 3.5t20 2.5q29 0 52 -13.5t23 -46.5q0 -22 -8 -36t-21.5 -22.5t-31.5 -11.5t-37 -3q-26 0 -47 6t-35 11l9 19q17 -6 35 -11t38 -5q14 0 28 2.5t25 8.5t18 16.5t7 25.5
q0 10 -6 18t-14 12.5t-18 7t-17 2.5q-32 0 -54 -13l-15 10l43 57q-64 3 -114 26q-29 14 -55 33t-47 43q-21 25 -38 54t-29 63q-24 67 -24 148q0 32 5 65t14 67q18 66 59 123q39 55 104 90q61 35 155 35q70 0 124 -23q27 -12 49 -27t40 -32q36 -36 54 -76q17 -39 19 -73h-20
q-3 37 -23 76q-20 38 -55 68q-34 29 -82 49q-48 18 -106 18q-87 0 -149 -35q-61 -37 -97 -89q-38 -54 -54 -117q-17 -65 -17 -119q0 -38 6 -72l453 -236q14 8 25.5 17.5t22.5 20.5q37 37 61 88q22 49 31 110h20zM484 32l-429 220l9 -33q11 -32 25.5 -59.5t34.5 -51.5
q39 -48 95 -77q55 -29 129 -29q64 0 115 21z" />
    <glyph glyph-name="eacute" unicode="&#xe9;" horiz-adv-x="537" 
d="M375 909l-146 -144h-15l132 144h29zM533 20v-20h-479v715h475v-20h-455v-283h428v-20h-428v-9v-20v-31h428v-20h-428v-292h459z" />
    <glyph glyph-name="ecircumflex" unicode="&#xea;" horiz-adv-x="537" 
d="M370 770l-103 123l-99 -123h-20l113 139h15l114 -139h-20zM533 20v-20h-479v715h475v-20h-455v-283h428v-20h-428v-9v-20v-31h428v-20h-428v-292h459z" />
    <glyph glyph-name="edieresis" unicode="&#xeb;" horiz-adv-x="537" 
d="M181 768v81h20v-81h-20zM337 768v81h20v-81h-20zM533 20v-20h-479v715h475v-20h-455v-283h428v-20h-428v-9v-20v-31h428v-20h-428v-292h459z" />
    <glyph glyph-name="egrave" unicode="&#xe8;" horiz-adv-x="537" 
d="M166 909h29l125 -144h-15zM533 20v-20h-479v715h475v-20h-455v-283h428v-20h-428v-9v-20v-31h428v-20h-428v-292h459z" />
    <glyph glyph-name="iacute" unicode="&#xed;" horiz-adv-x="128" 
d="M170 909l-146 -144h-15l132 144h29zM74 332v-332h-20v322zM54 381v334h20v-323z" />
    <glyph glyph-name="icircumflex" unicode="&#xee;" horiz-adv-x="128" 
d="M165 770l-103 123l-99 -123h-20l113 139h15l114 -139h-20zM74 332v-332h-20v322zM54 381v334h20v-323z" />
    <glyph glyph-name="idieresis" unicode="&#xef;" horiz-adv-x="128" 
d="M-24 768v81h20v-81h-20zM132 768v81h20v-81h-20zM74 332v-332h-20v322zM54 381v334h20v-323z" />
    <glyph glyph-name="igrave" unicode="&#xec;" horiz-adv-x="128" 
d="M-39 909h29l125 -144h-15zM74 332v-332h-20v322zM54 381v334h20v-323z" />
    <glyph glyph-name="ntilde" unicode="&#xf1;" horiz-adv-x="648" 
d="M192 780q0 14 5.5 28t15 25.5t22 18.5t25.5 7q17 0 33.5 -9t32.5 -20t31 -20t30 -9q23 0 36 17t13 38h20q0 -29 -17 -52t-52 -23q-19 0 -35 9t-31 20t-30 20t-31 9q-11 0 -19.5 -5.5t-15 -14.5t-10 -19.5t-3.5 -19.5h-20zM595 716v-716h-20l-501 564v-564h-20v716h20
l501 -564v564h20zM575 121l-501 564v-91l501 -564v91z" />
    <glyph glyph-name="oacute" unicode="&#xf3;" horiz-adv-x="721" 
d="M467 909l-146 -144h-15l132 144h29zM670 501q21 -68 21 -144t-21 -145q-23 -69 -64 -119q-41 -51 -103 -80q-62 -30 -142 -30t-141 30q-62 29 -104 80q-40 51 -63 119q-21 69 -21 145t21 144q22 67 63 119q41 50 104 82q61 30 141 30t142 -30q31 -16 57 -36t46 -46
q42 -51 64 -119zM74 499q-10 -31 -15.5 -64.5t-6.5 -69.5h619q-1 71 -23 134q-22 67 -61 112q-38 46 -96 74q-57 27 -130 27q-72 0 -129 -27q-58 -27 -97 -74q-38 -45 -61 -112zM648 214q11 30 16 63t7 68h-619q3 -73 22 -131q23 -65 61 -112q20 -23 44 -41.5t53 -31.5
q57 -27 129 -27q73 0 130 27q56 25 96 73q40 47 61 112z" />
    <glyph glyph-name="ocircumflex" unicode="&#xf4;" horiz-adv-x="721" 
d="M462 770l-103 123l-99 -123h-20l113 139h15l114 -139h-20zM670 501q21 -68 21 -144t-21 -145q-23 -69 -64 -119q-41 -51 -103 -80q-62 -30 -142 -30t-141 30q-62 29 -104 80q-40 51 -63 119q-21 69 -21 145t21 144q22 67 63 119q41 50 104 82q61 30 141 30t142 -30
q31 -16 57 -36t46 -46q42 -51 64 -119zM74 499q-10 -31 -15.5 -64.5t-6.5 -69.5h619q-1 71 -23 134q-22 67 -61 112q-38 46 -96 74q-57 27 -130 27q-72 0 -129 -27q-58 -27 -97 -74q-38 -45 -61 -112zM648 214q11 30 16 63t7 68h-619q3 -73 22 -131q23 -65 61 -112
q20 -23 44 -41.5t53 -31.5q57 -27 129 -27q73 0 130 27q56 25 96 73q40 47 61 112z" />
    <glyph glyph-name="odieresis" unicode="&#xf6;" horiz-adv-x="721" 
d="M273 768v81h20v-81h-20zM429 768v81h20v-81h-20zM670 501q21 -68 21 -144t-21 -145q-23 -69 -64 -119q-41 -51 -103 -80q-62 -30 -142 -30t-141 30q-62 29 -104 80q-40 51 -63 119q-21 69 -21 145t21 144q22 67 63 119q41 50 104 82q61 30 141 30t142 -30q31 -16 57 -36
t46 -46q42 -51 64 -119zM74 499q-10 -31 -15.5 -64.5t-6.5 -69.5h619q-1 71 -23 134q-22 67 -61 112q-38 46 -96 74q-57 27 -130 27q-72 0 -129 -27q-58 -27 -97 -74q-38 -45 -61 -112zM648 214q11 30 16 63t7 68h-619q3 -73 22 -131q23 -65 61 -112q20 -23 44 -41.5
t53 -31.5q57 -27 129 -27q73 0 130 27q56 25 96 73q40 47 61 112z" />
    <glyph glyph-name="ograve" unicode="&#xf2;" horiz-adv-x="721" 
d="M258 909h29l125 -144h-15zM670 501q21 -68 21 -144t-21 -145q-23 -69 -64 -119q-41 -51 -103 -80q-62 -30 -142 -30t-141 30q-62 29 -104 80q-40 51 -63 119q-21 69 -21 145t21 144q22 67 63 119q41 50 104 82q61 30 141 30t142 -30q31 -16 57 -36t46 -46q42 -51 64 -119
zM74 499q-10 -31 -15.5 -64.5t-6.5 -69.5h619q-1 71 -23 134q-22 67 -61 112q-38 46 -96 74q-57 27 -130 27q-72 0 -129 -27q-58 -27 -97 -74q-38 -45 -61 -112zM648 214q11 30 16 63t7 68h-619q3 -73 22 -131q23 -65 61 -112q20 -23 44 -41.5t53 -31.5q57 -27 129 -27
q73 0 130 27q56 25 96 73q40 47 61 112z" />
    <glyph glyph-name="otilde" unicode="&#xf5;" horiz-adv-x="721" 
d="M229 780q0 14 5.5 28t15 25.5t22 18.5t25.5 7q17 0 33.5 -9t32.5 -20t31 -20t30 -9q23 0 36 17t13 38h20q0 -29 -17 -52t-52 -23q-19 0 -35 9t-31 20t-30 20t-31 9q-11 0 -19.5 -5.5t-15 -14.5t-10 -19.5t-3.5 -19.5h-20zM670 501q21 -68 21 -144t-21 -145
q-23 -69 -64 -119q-41 -51 -103 -80q-62 -30 -142 -30t-141 30q-62 29 -104 80q-40 51 -63 119q-21 69 -21 145t21 144q22 67 63 119q41 50 104 82q61 30 141 30t142 -30q31 -16 57 -36t46 -46q42 -51 64 -119zM74 499q-10 -31 -15.5 -64.5t-6.5 -69.5h619q-1 71 -23 134
q-22 67 -61 112q-38 46 -96 74q-57 27 -130 27q-72 0 -129 -27q-58 -27 -97 -74q-38 -45 -61 -112zM648 214q11 30 16 63t7 68h-619q3 -73 22 -131q23 -65 61 -112q20 -23 44 -41.5t53 -31.5q57 -27 129 -27q73 0 130 27q56 25 96 73q40 47 61 112z" />
    <glyph glyph-name="scaron" unicode="&#x161;" horiz-adv-x="611" 
d="M205 931l103 -123l99 123h20l-113 -139h-15l-114 139h20zM131 410q-33 18 -55 52q-21 33 -21 85q0 54 22 89q20 34 57 56q33 21 79 31q43 9 86 9q53 0 98 -12q46 -12 78 -37q33 -24 54 -67q20 -43 23 -102h-20q-2 28 -6.5 51t-14.5 42q-9 19 -21.5 34t-27.5 27
q-29 23 -73 34q-21 5 -43.5 7.5t-46.5 2.5q-34 0 -77 -8q-40 -7 -73 -27q-32 -18 -53 -50t-21 -80q0 -49 21 -77q24 -30 56 -47q18 -9 37.5 -16t41.5 -12q14 -3 28.5 -6.5t28.5 -6.5l-27 -15q-14 3 -26.5 6t-25.5 7q-44 10 -78 30zM546 264q20 -34 20 -90q0 -49 -22 -87
q-23 -37 -58 -59q-37 -25 -82 -35q-43 -10 -91 -10q-59 0 -112 14q-53 13 -90 45q-37 29 -58 78q-20 50 -19 117h20q0 -67 19 -109q17 -44 53 -73q33 -28 83 -40q45 -13 104 -13q44 0 84 10q42 9 75 30q34 22 53 54q21 33 21 79q0 54 -24 86q-23 32 -60 50q-35 19 -81 28
q-8 2 -17 4t-17 4l27 13q11 -3 21 -6t21 -5q43 -12 78 -32q33 -21 52 -53z" />
    <glyph glyph-name="uacute" unicode="&#xfa;" horiz-adv-x="632" 
d="M422 909l-146 -144h-15l132 144h29zM578 715v-449q0 -146 -67 -214q-66 -69 -195 -69t-196 69q-67 70 -67 214v449h20v-436l419 -218q2 2 3.5 4t3.5 4q59 66 59 197v449h20zM132 69q60 -67 184 -67q103 0 161 46l-404 207q3 -121 59 -186z" />
    <glyph glyph-name="ucircumflex" unicode="&#xfb;" horiz-adv-x="632" 
d="M417 770l-103 123l-99 -123h-20l113 139h15l114 -139h-20zM578 715v-449q0 -146 -67 -214q-66 -69 -195 -69t-196 69q-67 70 -67 214v449h20v-436l419 -218q2 2 3.5 4t3.5 4q59 66 59 197v449h20zM132 69q60 -67 184 -67q103 0 161 46l-404 207q3 -121 59 -186z" />
    <glyph glyph-name="udieresis" unicode="&#xfc;" horiz-adv-x="632" 
d="M228 768v81h20v-81h-20zM384 768v81h20v-81h-20zM578 715v-449q0 -146 -67 -214q-66 -69 -195 -69t-196 69q-67 70 -67 214v449h20v-436l419 -218q2 2 3.5 4t3.5 4q59 66 59 197v449h20zM132 69q60 -67 184 -67q103 0 161 46l-404 207q3 -121 59 -186z" />
    <glyph glyph-name="ugrave" unicode="&#xf9;" horiz-adv-x="632" 
d="M213 909h29l125 -144h-15zM578 715v-449q0 -146 -67 -214q-66 -69 -195 -69t-196 69q-67 70 -67 214v449h20v-436l419 -218q2 2 3.5 4t3.5 4q59 66 59 197v449h20zM132 69q60 -67 184 -67q103 0 161 46l-404 207q3 -121 59 -186z" />
    <glyph glyph-name="yacute" unicode="&#xfd;" horiz-adv-x="538" 
d="M375 931l-146 -144h-15l132 144h29zM567 716l-498 -716h-30l216 306l-286 410h25l273 -392l276 392h24z" />
    <glyph glyph-name="ydieresis" unicode="&#xff;" horiz-adv-x="538" 
d="M181 768v81h20v-81h-20zM337 768v81h20v-81h-20zM567 716l-498 -716h-30l216 306l-286 410h25l273 -392l276 392h24z" />
    <glyph glyph-name="zcaron" unicode="&#x17e;" horiz-adv-x="500" 
d="M149 931l103 -123l99 123h20l-113 -139h-15l-114 139h20zM508 20v-20h-527v27l426 669h-399v20h492v-28l-427 -668h435zM49 20l431 676h-49l-431 -676h49z" />
    <glyph glyph-name="uni00AD" unicode="&#xad;" horiz-adv-x="333" 
d="M79 278h175v-20h-175v20z" />
    <glyph glyph-name="a" unicode="a" 
d="M586 0h-22l-459 235l-95 -235h-22l289 715h26zM552 26l-261 669h-2l-176 -440z" />
    <glyph glyph-name="b" unicode="b" horiz-adv-x="611" 
d="M564 268q14 -34 14 -74q0 -46 -17 -85q-18 -37 -49 -60q-30 -23 -75 -37q-44 -12 -94 -12h-296v715h308q21 0 40.5 -2.5t37.5 -8.5q37 -10 64 -33q14 -11 25 -25t19 -31q15 -33 15 -78q0 -31 -11 -61q-12 -29 -32 -51q-20 -23 -48 -36q-27 -14 -60 -15v-2q33 -1 66 -14
q31 -12 56 -35q11 -11 20.5 -24.5t16.5 -30.5zM67 530l288 -147q36 0 68 9q31 9 58 29q25 19 40 49q15 28 15 67q0 40 -14 71q-14 30 -39 49q-22 18 -57 29q-33 9 -71 9h-288v-165zM542 116q16 32 16 77q0 47 -17 79t-47 52q-14 11 -30 18t-35 12q-36 9 -74 9l-288 147v-490
h285q45 0 81 10q37 10 65 32q27 21 44 54z" />
    <glyph glyph-name="Aogonek" unicode="&#x104;" 
d="M586 0h-22l-459 235l-95 -235h-22l289 715h26zM552 26l-261 669h-2l-176 -440zM586 0q-28 -22 -47.5 -39t-31.5 -31.5t-17.5 -28t-5.5 -26.5q0 -16 11.5 -30.5t40.5 -14.5q24 0 45 11t32 22l15 -13q-14 -13 -36.5 -25.5t-59.5 -12.5q-38 0 -54 18t-16 44q0 17 8 34
t21.5 33t31 30.5t35.5 28.5h6h22z" />
    <glyph glyph-name="aogonek" unicode="&#x105;" 
d="M586 0h-22l-459 235l-95 -235h-22l289 715h26zM552 26l-261 669h-2l-176 -440zM586 0q-28 -22 -47.5 -39t-31.5 -31.5t-17.5 -28t-5.5 -26.5q0 -16 11.5 -30.5t40.5 -14.5q24 0 45 11t32 22l15 -13q-14 -13 -36.5 -25.5t-59.5 -12.5q-38 0 -54 18t-16 44q0 17 8 34
t21.5 33t31 30.5t35.5 28.5h6h22z" />
    <glyph glyph-name="Eogonek" unicode="&#x118;" horiz-adv-x="537" 
d="M533 20v-20h-479v715h475v-20h-455v-283h428v-20h-428v-60h428v-20h-428v-292h459zM489 0q-57 -43 -80 -71q-23 -29 -23 -54q0 -16 12 -31q12 -14 40 -14q23 0 45 11q20 10 32 22l15 -13q-8 -7 -17 -13.5t-21 -12.5q-23 -12 -58 -12q-38 0 -54 18q-16 19 -16 44
q0 18 9 35q4 8 9.5 16.5t12.5 16.5q13 15 30 30l35 28h29z" />
    <glyph glyph-name="eogonek" unicode="&#x119;" horiz-adv-x="537" 
d="M533 20v-20h-479v715h475v-20h-455v-283h428v-20h-428v-60h428v-20h-428v-292h459zM489 0q-57 -43 -80 -71q-23 -29 -23 -54q0 -16 12 -31q12 -14 40 -14q23 0 45 11q20 10 32 22l15 -13q-8 -7 -17 -13.5t-21 -12.5q-23 -12 -58 -12q-38 0 -54 18q-16 19 -16 44
q0 18 9 35q4 8 9.5 16.5t12.5 16.5q13 15 30 30l35 28h29z" />
    <glyph glyph-name="exclamdown" unicode="&#xa1;" horiz-adv-x="185" 
d="M83 360h20v-228l-20 -10v238zM83 56l20 10v-239h-20v229zM64 483v59h59v-59h-59z" />
    <glyph glyph-name="Zacute" unicode="&#x179;" horiz-adv-x="500" 
d="M73 20l427 668v28h-492v-20h399l-426 -669v-27h527v20h-435zM0 20l431 676h49l-431 -676h-49zM203 767h-15l132 144h29l-146 -144v0z" />
    <glyph glyph-name="zacute" unicode="&#x17a;" horiz-adv-x="500" 
d="M73 20l427 668v28h-492v-20h399l-426 -669v-27h527v20h-435zM0 20l431 676h49l-431 -676h-49zM203 767h-15l132 144h29l-146 -144v0z" />
    <glyph glyph-name="Zdotaccent" unicode="&#x17b;" horiz-adv-x="500" 
d="M73 20l427 668v28h-492v-20h399l-426 -669v-27h527v20h-435zM0 20l431 676h49l-431 -676h-49zM259 770h-20v81h20v-81v0z" />
    <glyph glyph-name="zdotaccent" unicode="&#x17c;" horiz-adv-x="500" 
d="M73 20l427 668v28h-492v-20h399l-426 -669v-27h527v20h-435zM0 20l431 676h49l-431 -676h-49zM259 770h-20v81h20v-81v0z" />
    <glyph glyph-name="Nacute.001" unicode="&#x143;" horiz-adv-x="648" 
d="M575 716v-564l-501 564h-20v-716h20v564l501 -564h20v716h-20zM575 30l-501 564v91l501 -564v-91zM298 767h-15l132 144h29l-146 -144v0z" />
    <glyph glyph-name="Nacute" unicode="&#x144;" horiz-adv-x="648" 
d="M575 716v-564l-501 564h-20v-716h20v564l501 -564h20v716h-20zM575 30l-501 564v91l501 -564v-91zM298 767h-15l132 144h29l-146 -144v0z" />
    <glyph glyph-name="plus" unicode="+" horiz-adv-x="600" 
d="M290 507h20v-216l-20 -10v226zM48 263h209l-38 -20h-171v20zM290 215l20 10v-225h-20v215zM553 263v-20h-208l39 20h169z" />
    <glyph glyph-name="exclam" unicode="!" horiz-adv-x="185" 
d="M103 182h-20v228l20 10v-238zM103 486l-20 -10v239h20v-229zM122 59v-59h-59v59h59z" />
    </font>
</defs>
</svg>
