<svg xmlns="http://www.w3.org/2000/svg" xmlns:xlink="http://www.w3.org/1999/xlink" version="1.1" x="0px" y="0px" viewBox="0 0 100 100" enable-background="new 0 0 100 100" xml:space="preserve"><path d="M92.2,89.5c3.7,0,6.8-3,6.8-6.8V17.2c0-3.7-3-6.8-6.8-6.8H7.8c-3.7,0-6.8,3-6.8,6.8v65.5c0,3.7,3,6.8,6.8,6.8H92.2z M7.8,14  h84.4c1.8,0,3.3,1.5,3.3,3.3v12.1h-91V17.2C4.5,15.4,6,14,7.8,14z M4.5,82.8V32.9h91v49.9c0,1.8-1.5,3.3-3.3,3.3H7.8  C6,86,4.5,84.6,4.5,82.8z M11,22.9c-0.3-0.3-0.5-0.8-0.5-1.2s0.2-0.9,0.5-1.2c0.6-0.6,1.8-0.6,2.5,0c0.3,0.3,0.5,0.8,0.5,1.2  s-0.2,0.9-0.5,1.2c-0.3,0.3-0.8,0.5-1.2,0.5S11.3,23.2,11,22.9z M20.4,22.9c-0.3-0.3-0.5-0.8-0.5-1.2s0.2-0.9,0.5-1.2  c0.6-0.6,1.8-0.6,2.5,0c0.3,0.3,0.5,0.8,0.5,1.2s-0.2,0.9-0.5,1.2c-0.3,0.3-0.8,0.5-1.2,0.5C21.2,23.4,20.7,23.2,20.4,22.9z   M29.9,22.9c-0.3-0.3-0.5-0.8-0.5-1.2s0.2-0.9,0.5-1.2c0.7-0.6,1.8-0.6,2.5,0c0.3,0.3,0.5,0.8,0.5,1.2s-0.2,0.9-0.5,1.2  c-0.3,0.3-0.8,0.5-1.2,0.5S30.2,23.2,29.9,22.9z M70.7,49.7c5,4.1,7.9,8.3,8,8.4c0.4,0.6,0.4,1.4,0,2C78.2,60.8,66.7,77,50.1,77  c-1.3,0-2.6-0.1-3.9-0.3c-1-0.1-1.6-1-1.5-2c0.1-1,1-1.6,2-1.5c1.1,0.2,2.3,0.3,3.4,0.3c12.5,0,22.2-10.9,24.9-14.4  c-1.1-1.4-3.4-4.1-6.6-6.8c-0.7-0.6-0.8-1.7-0.2-2.5C68.8,49.2,69.9,49.1,70.7,49.7z M34.3,72l-5.2,5.2c-0.7,0.7-0.7,1.8,0,2.5  c0.3,0.3,0.8,0.5,1.2,0.5s0.9-0.2,1.2-0.5L56.3,55c0,0,0,0,0,0c0,0,0,0,0,0l14.8-14.8c0.7-0.7,0.7-1.8,0-2.5c-0.7-0.7-1.8-0.7-2.5,0  l-6.5,6.5c-4-1.9-8-2.9-12.1-2.9c-16.5,0-28.1,16.2-28.6,16.9c-0.4,0.6-0.4,1.4,0,2C21.8,60.4,26.5,67.1,34.3,72z M44.8,58.7  c0-2.9,2.4-5.3,5.3-5.3c0.8,0,1.6,0.2,2.3,0.5l-7,7C45,60.2,44.8,59.5,44.8,58.7z M50.1,44.8c3.1,0,6.3,0.7,9.4,2L55,51.3  c-1.4-1-3.1-1.5-4.9-1.5c-4.8,0-8.8,3.9-8.8,8.8c0,1.7,0.5,3.4,1.5,4.9l-6,6c-5.8-3.5-10-8.3-11.6-10.4  C27.9,55.7,37.6,44.8,50.1,44.8z"/></svg>
