<svg xmlns="http://www.w3.org/2000/svg" xmlns:xlink="http://www.w3.org/1999/xlink" version="1.1" x="0px" y="0px" viewBox="0 0 63 63" enable-background="new 0 0 63 63" xml:space="preserve"><g><path d="M57.5,20.7C58.1,14.1,52.4,4,41.5,4c-5.1,0-9.8,2.4-12.8,6.4c-9.4-6.6-19,1.3-19.2,8.8c-5.2,0.9-9,5.4-9,10.8   c0,6.1,4.9,11,11,11v-2c-5,0-9-4-9-9c0-4.6,3.5-8.5,8.1-9l0.9-0.1c-0.9-8.6,10-15.3,17.6-7.5c0,0,3.8-7.4,12.4-7.4   c10.3,0,15,9.8,13.9,15.9c0,0,5.1,2.4,5.1,8.1c0,5-4,9-9,9v2c6.1,0,11-4.9,11-11C62.5,26.2,60.6,22.7,57.5,20.7z"/><path d="M22.5,14v-2c-5,0-9,4-9,9h2C15.5,17.1,18.6,14,22.5,14z"/><path d="M31.5,20.9c-10.1,0-19,8.3-19,19c0,8.4,6.6,19.1,19,19.1c11,0,19-9.1,19-19.1C50.5,27.9,40.5,20.9,31.5,20.9z M14.5,39   c0.2-4,1.8-7.7,4.6-10.6c0.9,0.8,1.9,1.5,2.9,2.1c-0.8,2.5-1.3,5.4-1.4,8.5H14.5z M32.5,49c2.1,0.1,4.1,0.6,6,1.5   c-1.5,3.5-3.6,5.9-6,6.4V49z M32.5,47v-6h8c-0.1,2.7-0.5,5.3-1.3,7.6C37.1,47.7,34.8,47.1,32.5,47z M32.5,39v-6   c2.3-0.1,4.6-0.7,6.7-1.6c0.7,2.3,1.2,4.9,1.3,7.6H32.5z M30.5,31c-2.1-0.1-4.1-0.6-6-1.5c1.5-3.5,3.6-5.9,6-6.4V31z M32.5,31v-7.9   c2.4,0.5,4.6,3,6,6.4C36.6,30.4,34.6,30.9,32.5,31z M37.6,24.1c1.8,0.7,3.4,1.7,4.9,2.9c-0.7,0.6-1.4,1.1-2.2,1.6   C39.6,26.8,38.7,25.3,37.6,24.1z M22.7,28.6c-0.8-0.5-1.5-1-2.2-1.6c1.5-1.3,3.1-2.2,4.9-2.9C24.3,25.3,23.4,26.8,22.7,28.6z    M23.8,31.4c2.1,0.9,4.4,1.5,6.7,1.6v6h-8C22.6,36.3,23.1,33.7,23.8,31.4z M30.5,41v6c-2.3,0.1-4.6,0.7-6.7,1.6   c-0.7-2.3-1.2-4.9-1.3-7.6H30.5z M30.5,49v7.9c-2.4-0.5-4.6-3-6-6.4C26.4,49.6,28.4,49.1,30.5,49z M25.4,55.9   c-1.8-0.7-3.4-1.7-4.9-2.9c0.7-0.6,1.4-1.1,2.2-1.6C23.4,53.2,24.3,54.7,25.4,55.9z M40.3,51.4c0.8,0.5,1.5,1,2.2,1.6   c-1.5,1.3-3.1,2.2-4.9,2.9C38.7,54.7,39.6,53.2,40.3,51.4z M41.1,49.5c0.8-2.5,1.3-5.4,1.4-8.5h6c-0.2,4-1.8,7.7-4.6,10.6   C43,50.8,42.1,50.1,41.1,49.5z M42.5,39c-0.1-3.1-0.6-6-1.4-8.5c1-0.6,2-1.3,2.9-2.1c2.7,2.9,4.3,6.6,4.6,10.6H42.5z M14.5,41h6   c0.1,3.1,0.6,6,1.4,8.5c-1,0.6-2,1.3-2.9,2.1C16.3,48.7,14.7,45,14.5,41z"/></g></svg>
