<svg xmlns="http://www.w3.org/2000/svg" xmlns:xlink="http://www.w3.org/1999/xlink" version="1.1" x="0px" y="0px" viewBox="0 0 512 512" enable-background="new 0 0 512 512" xml:space="preserve"><g><path d="M469,2H43C20.4,2,2,20.4,2,43v393.3c0,19.8,14.1,36.3,32.8,40.1V510h81.9v-32.8h278.6V510h81.9v-33.6   c18.7-3.8,32.8-20.4,32.8-40.1V43C510,20.4,491.6,2,469,2z M100.3,493.6H51.2v-16.4h49.2V493.6z M460.8,493.6h-49.2v-16.4h49.2   V493.6z M493.6,436.3c0,13.6-11,24.6-24.6,24.6H43c-13.6,0-24.6-11-24.6-24.6V43c0-13.6,11-24.6,24.6-24.6H469   c13.6,0,24.6,11,24.6,24.6V436.3z"/><path d="M452.6,59.4H59.4v360.5h393.3v-49.2H469v-81.9h-16.4v-98.3H469v-81.9h-16.4V59.4z M452.6,354.3h-16.4v-49.2h16.4V354.3z    M436.3,288.8h-16.4v81.9h16.4v32.8H75.7V75.7h360.5v32.8h-16.4v81.9h16.4V288.8z M452.6,174.1h-16.4v-49.2h16.4V174.1z"/><path d="M182.3,206.8c-18.1,0-32.8,14.7-32.8,32.8s14.7,32.8,32.8,32.8s32.8-14.7,32.8-32.8S200.3,206.8,182.3,206.8z M182.3,256   c-9,0-16.4-7.3-16.4-16.4s7.4-16.4,16.4-16.4c9,0,16.4,7.3,16.4,16.4S191.3,256,182.3,256z"/><path d="M246,164.3l-17.8,17.8c-12.6-10.1-28.6-16.2-46-16.2c-17.4,0-33.4,6.1-46,16.2l-17.8-17.8l-11.6,11.6l17.8,17.8   c-10.1,12.6-16.2,28.6-16.2,46c0,17.4,6.1,33.4,16.2,46l-17.8,17.8l11.6,11.6l17.8-17.8c12.6,10.1,28.6,16.2,46,16.2   c17.4,0,33.4-6.1,46-16.2l17.8,17.8l11.6-11.6l-17.8-17.8c10.1-12.6,16.2-28.6,16.2-46c0-17.4-6.1-33.4-16.2-46l17.8-17.8   L246,164.3z M182.3,297c-31.6,0-57.4-25.7-57.4-57.4s25.7-57.4,57.4-57.4s57.4,25.7,57.4,57.4S213.9,297,182.3,297z"/><rect x="247.8" y="108.5" width="16.4" height="16.4"/><rect x="280.6" y="108.5" width="16.4" height="16.4"/><rect x="215" y="108.5" width="16.4" height="16.4"/></g></svg>
